<svg width="300" height="300" viewBox="0 0 300 300" fill="none" xmlns="http://www.w3.org/2000/svg">
<g clip-path="url(#clip0_84_123)">
<circle cx="150" cy="150" r="150" fill="black"/>
<path d="M65.1551 166.457H127.652L121.232 179.559H58.7351L65.1551 166.457Z" fill="white"/>
<path d="M87.6905 120.075H243.867L237.447 133.177H81.2705L87.6905 120.075Z" fill="white"/>
<path d="M124.9 57.4478H144.815L52.315 242.448H32.3999L124.9 57.4478Z" fill="white"/>
<path d="M155.69 57.4478H175.605L83.1048 242.448H63.1897L155.69 57.4478Z" fill="white"/>
<path d="M186.349 57.4478H206.264L113.763 242.448H93.8484L186.349 57.4478Z" fill="white"/>
<path d="M217.007 57.4478H236.923L144.422 242.448H124.507L217.007 57.4478Z" fill="white"/>
<path d="M247.666 57.4478H267.581L175.081 242.448H155.166L247.666 57.4478Z" fill="white"/>
</g>
<defs>
<clipPath id="clip0_84_123">
<rect width="300" height="300" fill="white"/>
</clipPath>
</defs>
</svg>
